<svg xmlns="http://www.w3.org/2000/svg" width="1em" height="1em" viewBox="0 0 52 52" fill="none">
  <path
    d="M41.5 31H36.2573C36.0958 31 35.9443 30.922 35.8504 30.7906L31.3898 24.5457C31.1954 24.2735 30.7936 24.2653 30.5883 24.5294L20.8329 37.072C20.6536 37.3026 20.3156 37.331 20.1003 37.1336L14.6434 32.1314C14.5512 32.0469 14.4306 32 14.3055 32H11"
    stroke="#c2d4ff" stroke-width="2" stroke-linecap="round"></path>
  <path
    d="M10 27.2581H15.6762C15.8893 27.2581 16.079 27.123 16.1487 26.9216L20.5315 14.2602C20.6826 13.8236 21.2944 13.808 21.4676 14.2364L30.9821 37.7723C31.1418 38.1673 31.6908 38.1944 31.8885 37.8169L37.279 27.5261C37.3653 27.3613 37.5359 27.2581 37.7219 27.2581H44"
    stroke="#5083fb" stroke-width="2" stroke-linecap="round"></path>
</svg>
