<svg width="1em" height="1em" viewBox="0 0 52 52" fill="none" xmlns="http://www.w3.org/2000/svg">
  <path
    d="M33 13C33.5523 13 34 13.4477 34 14L34 16C34 16.5523 33.5523 17 33 17L9 17C8.44772 17 8 16.5523 8 16L8 14C8 13.4477 8.44772 13 9 13L33 13Z"
    fill="#c2d4ff"></path>
  <path
    d="M18 20C18.5523 20 19 20.4477 19 21L19 23C19 23.5523 18.5523 24 18 24L9 24C8.44771 24 8 23.5523 8 23L8 21C8 20.4477 8.44772 20 9 20L18 20Z"
    fill="#c2d4ff"></path>
  <path
    d="M43 27C43.5523 27 44 27.4477 44 28L44 30C44 30.5523 43.5523 31 43 31L9 31C8.44772 31 8 30.5523 8 30L8 28C8 27.4477 8.44772 27 9 27L43 27Z"
    fill="#5083fb"></path>
  <path
    d="M27 34C27.5523 34 28 34.4477 28 35L28 37C28 37.5523 27.5523 38 27 38L9 38C8.44772 38 8 37.5523 8 37L8 35C8 34.4477 8.44772 34 9 34L27 34Z"
    fill="#c2d4ff"></path>
</svg>
