<svg width="1em" height="1em" viewBox="0 0 52 52" fill="none" xmlns="http://www.w3.org/2000/svg">
  <path
    d="M24.6835 10.8747C25.4696 10.3075 26.5304 10.3075 27.3165 10.8747L41.7836 21.3125C42.5777 21.8855 42.9101 22.9062 42.6055 23.8369L37.0881 40.6997C36.7855 41.6245 35.9227 42.25 34.9497 42.25H17.0503C16.0773 42.25 15.2145 41.6245 14.9119 40.6997L9.39445 23.8369C9.08994 22.9062 9.42231 21.8855 10.2164 21.3125L24.6835 10.8747Z"
    stroke="#c2d4ff" stroke-width="1.5"></path>
  <path fill-rule="evenodd"
        d="M25.6007 22.2645C26.1705 22.0969 26.7853 22.1912 27.2786 22.5219L31.3243 25.2336C31.8783 25.605 32.2108 26.228 32.2108 26.895V32.7901C32.2108 33.7746 31.4942 34.6127 30.5216 34.7658L21.5394 36.1791C20.4237 36.3547 19.384 35.5722 19.2439 34.4515L18.2109 26.1871C18.0893 25.2143 18.6906 24.2969 19.6311 24.0203L25.6007 22.2645Z"
        stroke="rgb(148, 180, 255)" stroke-width="1.5" stroke-linecap="round" stroke-linejoin="round"></path>
  <path
    d="M16.3268 22.4774L25.3048 16.761C26.0208 16.3051 26.9467 16.3509 27.6143 16.8753L35.8818 23.369C36.4606 23.8236 36.7429 24.5594 36.6168 25.2845L34.7134 36.2289C34.5331 37.2659 33.5799 37.9856 32.5331 37.8752L20.7701 36.634C19.9956 36.5523 19.339 36.0284 19.0873 35.2914L15.5083 24.8108C15.21 23.9373 15.5483 22.9732 16.3268 22.4774Z"
    stroke="rgb(80, 131, 251)" stroke-width="1.5" stroke-linecap="round" stroke-linejoin="round"></path>
  <circle cx="26.5" cy="16.5" r="1.5" fill="white" stroke="rgb(80, 131, 251)"></circle>
  <circle cx="20" cy="36" r="1.5" fill="white" stroke="rgb(80, 131, 251)"></circle>
  <circle cx="34" cy="37.5" r="1.5" fill="white" stroke="rgb(80, 131, 251)"></circle>
  <circle cx="36.5" cy="24.5" r="1.5" fill="white" stroke="rgb(80, 131, 251)"></circle>
  <circle cx="15.5" cy="23.5" r="1.5" fill="white" stroke="rgb(80, 131, 251)"></circle>
</svg>
