<svg width="52" height="52" viewBox="0 0 52 52" fill="none" xmlns="http://www.w3.org/2000/svg">
  <path fill-rule="evenodd"
        d="M26 18C21.5817 18 18 21.5817 18 26C18 26.1536 18.0043 26.3058 18.0127 26.4567C18.0505 27.1327 17.637 27.7845 16.9746 27.9249L11.547 29.0751C10.8846 29.2155 10.229 28.7926 10.1399 28.1214C10.0475 27.4258 10 26.7176 10 26C10 17.1634 17.1634 10 26 10C26.7176 10 27.4258 10.0475 28.1214 10.1399C28.7926 10.229 29.2155 10.8846 29.0751 11.547L27.9249 16.9746C27.7845 17.637 27.1327 18.0505 26.4567 18.0127C26.3058 18.0043 26.1536 18 26 18Z"
        fill="rgb(80, 131, 251)"></path>
  <path fill-rule="evenodd"
        d="M29.2989 17.6239C29.3363 17.5156 29.3677 17.4029 29.3925 17.2858L30.5427 11.8581C30.5532 11.8085 30.5623 11.7588 30.5699 11.709C36.6195 13.6418 41.0002 19.3094 41.0002 26.0002C41.0002 34.2845 34.2845 41.0002 26.0002 41.0002C19.3094 41.0002 13.6418 36.6195 11.709 30.5699C11.7588 30.5623 11.8085 30.5532 11.8581 30.5427L17.2858 29.3925C17.4029 29.3677 17.5156 29.3363 17.6239 29.2989C18.9398 32.6376 22.1941 35.0002 26.0002 35.0002C30.9708 35.0002 35.0002 30.9708 35.0002 26.0002C35.0002 22.1941 32.6376 18.9398 29.2989 17.6239Z"
        fill="#e0e9ff"></path>
</svg>
