<svg width="52" height="52" viewBox="0 0 52 52" fill="none" xmlns="http://www.w3.org/2000/svg">
  <path d="M8 15C8 13.8954 8.89543 13 10 13H43C44.1046 13 45 13.8954 45 15V18.5H8V15Z" fill="#94b4ff"></path>
  <path d="M14.5 23.5H38.5V29H14.5V23.5Z" fill="#94b4ff"></path>
  <path d="M20.5 33.5H32.5V37C32.5 38.1046 31.6046 39 30.5 39H22.5C21.3954 39 20.5 38.1046 20.5 37V33.5Z"
        fill="#5083fb"></path>
  <path d="M8 18.5H45L38.5 23.5H14.5L8 18.5Z" fill="#eff0f1"></path>
  <path d="M14.5 29L38.5 29L32.5 33.5H20.5L14.5 29Z" fill="#eff0f1"></path>
</svg>
