<svg width="1em" height="1em" viewBox="0 0 52 52" fill="none" xmlns="http://www.w3.org/2000/svg">
  <path d="M46 30V10.5237H6V30H46Z" fill="url(#paint0_linear_554_88547)"></path>
  <path
    d="M33.6195 32.5C39.6035 33.4968 40.016 25.5237 46 25.5237V47H6V27.595C8.02956 29.2895 11.8554 31.0336 14.1252 30.2354C17.7546 28.9591 17.9691 20 22.5721 20C28.4224 20 27.6355 31.5032 33.6195 32.5Z"
    fill="url(#paint1_linear_554_88547)"></path>
  <path d="M45.127 11L7 10.9999" stroke="rgb(148, 180, 255)" stroke-width="1.5" stroke-linecap="round"></path>
  <path
    d="M45.127 25.5238C39.143 25.5238 39.6033 33.4965 33.6193 32.4997C27.6353 31.5029 28.4221 20.0001 22.5719 20.0001C17.9688 20.0001 17.7543 28.9592 14.1249 30.2356C11.8552 31.0338 8.87805 29.0904 6.84848 27.3959"
    stroke="rgb(80, 131, 251)" stroke-width="1.5" stroke-linecap="round"></path>
  <defs>
    <linearGradient id="paint0_linear_554_88547" x1="25.9891" y1="5" x2="25.9891" y2="30"
                    gradientUnits="userSpaceOnUse">
      <stop stop-color="rgb(148, 180, 255)" stop-opacity="0.5"></stop>
      <stop offset="1" stop-color="white" stop-opacity="0"></stop>
    </linearGradient>
    <linearGradient id="paint1_linear_554_88547" x1="25.9891" y1="20" x2="25.9891" y2="47"
                    gradientUnits="userSpaceOnUse">
      <stop stop-color="rgb(80, 131, 251)" stop-opacity="0.5"></stop>
      <stop offset="1" stop-color="white" stop-opacity="0"></stop>
    </linearGradient>
  </defs>
</svg>
