<svg width="52" height="52" viewBox="0 0 52 52" fill="none" xmlns="http://www.w3.org/2000/svg">
  <path d="M12 24H19V39C19 40.1046 18.1046 41 17 41H14C12.8954 41 12 40.1046 12 39V24Z"
        fill="rgb(80, 131, 251)"></path>
  <path d="M23 32H30V38C30 39.1046 29.1046 40 28 40H25C23.8954 40 23 39.1046 23 38V32Z"
        fill="rgb(80, 131, 251)"></path>
  <path d="M34 27H41V39C41 40.1046 40.1046 41 39 41H36C34.8954 41 34 40.1046 34 39V27Z"
        fill="rgb(80, 131, 251)"></path>
  <path d="M34 13C34 11.8954 34.8954 11 36 11H39C40.1046 11 41 11.8954 41 13V26H34V13Z" fill="#c2d4ff"></path>
  <path d="M12 12.9C12 11.8507 12.8507 11 13.9 11H17.1C18.1493 11 19 11.8507 19 12.9V23H12V12.9Z"
        fill="#c2d4ff"></path>
  <path d="M23 12.9C23 11.8507 23.8507 11 24.9 11H28.1C29.1493 11 30 11.8507 30 12.9V31H23V12.9Z"
        fill="#c2d4ff"></path>
</svg>
