<svg width="52" height="52" viewBox="0 0 52 52" fill="none" xmlns="http://www.w3.org/2000/svg">
  <path d="M28.5 28L28.5 32L9 32C8.44772 32 8 31.5523 8 31L8 29C8 28.4477 8.44772 28 9 28L28.5 28Z"
        fill="rgb(80, 131, 251)"></path>
  <path d="M43 28C43.5523 28 44 28.4477 44 29L44 31C44 31.5523 43.5523 32 43 32L29.5 32L29.5 28L43 28Z"
        fill="#c2d4ff"></path>
  <path d="M36.5 21L36.5 25L9 25C8.44772 25 8 24.5523 8 24L8 22C8 21.4477 8.44772 21 9 21L36.5 21Z"
        fill="rgb(80, 131, 251)"></path>
  <path d="M43 21C43.5523 21 44 21.4477 44 22L44 24C44 24.5523 43.5523 25 43 25L37.5 25L37.5 21L43 21Z"
        fill="#c2d4ff"></path>
  <path d="M23 14L23 18L9 18C8.44771 18 8 17.5523 8 17L8 15C8 14.4477 8.44772 14 9 14L23 14Z"
        fill="rgb(80, 131, 251)"></path>
  <path d="M43 14C43.5523 14 44 14.4477 44 15L44 17C44 17.5523 43.5523 18 43 18L24 18L24 14L43 14Z"
        fill="#c2d4ff"></path>
  <path d="M21 35L21 39L9 39C8.44771 39 8 38.5523 8 38L8 36C8 35.4477 8.44771 35 9 35L21 35Z"
        fill="rgb(80, 131, 251)"></path>
  <path d="M43 35C43.5523 35 44 35.4477 44 36L44 38C44 38.5523 43.5523 39 43 39L22 39L22 35L43 35Z"
        fill="#c2d4ff"></path>
</svg>
