<svg width="12" height="12" viewBox="0 0 12 12" fill="none" xmlns="http://www.w3.org/2000/svg">
  <path fill-rule="evenodd" clip-rule="evenodd"
        d="M4.30803 2.00065C4.4915 1.99131 4.66531 2.08333 4.76072 2.24031L8.28944 8.04611L10.5823 4.55865C10.734 4.32791 11.0441 4.26384 11.2748 4.41554C11.5055 4.56725 11.5696 4.87728 11.4179 5.10802L8.69063 9.25617C8.59644 9.39943 8.43541 9.48445 8.26398 9.4814C8.09254 9.47836 7.93463 9.38769 7.84557 9.24117L4.38693 3.55067L1.45155 9.71497C1.33282 9.96429 1.03447 10.0702 0.78515 9.95143C0.535832 9.83271 0.429963 9.53435 0.548686 9.28503L3.88202 2.28504C3.961 2.11918 4.12457 2.00999 4.30803 2.00065Z"
        fill="currentColor"></path>
</svg>
