<svg width="1em" height="1em" viewBox="0 0 52 52" fill="none" xmlns="http://www.w3.org/2000/svg">
  <path
    d="M24.6835 10.8747C25.4696 10.3075 26.5304 10.3075 27.3165 10.8747L41.7836 21.3125C42.5777 21.8855 42.9101 22.9062 42.6055 23.8369L37.0881 40.6997C36.7855 41.6245 35.9227 42.25 34.9497 42.25H17.0503C16.0773 42.25 15.2145 41.6245 14.9119 40.6997L9.39445 23.8369C9.08994 22.9062 9.42231 21.8855 10.2164 21.3125L24.6835 10.8747Z"
    stroke="#c2d4ff" stroke-width="1.5"></path>
  <path fill-rule="evenodd"
        d="M25.6007 22.2645C26.1705 22.0969 26.7853 22.1912 27.2786 22.5219L31.3243 25.2336C31.8783 25.605 32.2108 26.228 32.2108 26.895V32.855C32.2108 33.8108 31.5345 34.633 30.5968 34.8175L21.6149 36.584C20.4734 36.8086 19.3818 36.0151 19.2432 34.8599L18.2016 26.1797C18.0852 25.2101 18.6861 24.2982 19.623 24.0227L25.6007 22.2645Z"
        stroke="rgb(148, 180, 255)" stroke-linecap="round" stroke-linejoin="round"></path>
  <path
    d="M16.3268 22.4774L25.3048 16.761C26.0208 16.3051 26.9467 16.3509 27.6143 16.8753L35.8818 23.369C36.4606 23.8236 36.7429 24.5594 36.6168 25.2845L34.7134 36.2289C34.5331 37.2659 33.5799 37.9856 32.5331 37.8752L20.7701 36.634C19.9956 36.5523 19.339 36.0284 19.0873 35.2914L15.5083 24.8108C15.21 23.9373 15.5483 22.9732 16.3268 22.4774Z"
    stroke="rgb(80, 131, 251)" stroke-width="1.5" stroke-linecap="round" stroke-linejoin="round"></path>
</svg>
