<svg width="1em" height="1em" viewBox="0 0 52 52" fill="none" xmlns="http://www.w3.org/2000/svg">
  <path
    d="M8 25.9504C11.206 28.3793 11.8675 35.6106 16.2998 34.9586C23.6768 33.8736 26.1168 21 30.6922 21C35.2677 21 33.2225 30.2896 40.0426 32.0428C42.6228 32.7061 45.5545 31.7596 48 29.8857"
    stroke="#c2d4ff" stroke-width="2" stroke-linecap="round"></path>
  <path
    d="M49 24.7105C47.0766 25.932 44.6649 26.6477 42.4632 24.933C37.8359 21.3291 37.5661 36.0171 32.1637 34.9438C25.6442 33.6485 25.7212 17 19.9009 17C15.7435 17 15.3401 27.8311 11.2334 29.3261C8.66511 30.261 5.29648 27.9848 3 26"
    stroke="rgb(80, 131, 251)" stroke-width="2" stroke-linecap="round"></path>
</svg>
