<svg width="12" height="12" viewBox="0 0 12 12" fill="none" xmlns="http://www.w3.org/2000/svg">
  <path fill-rule="evenodd" clip-rule="evenodd"
        d="M6 3C7.10457 3 8 3.89543 8 5V5.5C8 6.60457 8.89543 7.5 10 7.5H11C11.2761 7.5 11.5 7.27614 11.5 7C11.5 6.72386 11.2761 6.5 11 6.5H10C9.44772 6.5 9 6.05228 9 5.5V5C9 3.34315 7.65685 2 6 2C4.34315 2 3 3.34315 3 5V7.5C3 8.32843 2.32843 9 1.5 9H1C0.723858 9 0.5 9.22386 0.5 9.5C0.5 9.77614 0.723858 10 1 10H1.5C2.88071 10 4 8.88071 4 7.5V5C4 3.89543 4.89543 3 6 3Z"
        fill="currentColor"></path>
</svg>
