<svg width="52" height="52" viewBox="0 0 52 52" fill="none" xmlns="http://www.w3.org/2000/svg">
  <path
    d="M33.6195 20.5C39.6035 21.4968 40.016 14.5237 46 14.5237V34H6V16.595C8.02956 18.2895 11.8554 20.0336 14.1252 19.2354C17.7546 17.9591 17.9691 9.00003 22.5721 9.00003C28.4224 9.00003 27.6355 19.5032 33.6195 20.5Z"
    fill="url(#paint0_linear_554_88540)"></path>
  <path
    d="M33.6195 34.5C39.6035 35.4968 40.016 27.5237 46 27.5237V47H6V29.595C8.02956 31.2895 11.8554 33.0336 14.1252 32.2354C17.7546 30.9591 17.9691 22 22.5721 22C28.4224 22 27.6355 33.5032 33.6195 34.5Z"
    fill="url(#paint1_linear_554_88540)"></path>
  <path
    d="M45.127 14.5238C39.143 14.5238 39.6033 21.4968 33.6193 20.5C27.6353 19.5032 28.4221 9.00017 22.5719 9.00017C17.9688 9.00017 17.7543 17.9592 14.1249 19.2356C11.8552 20.0338 8.87805 18.0905 6.84848 16.396"
    stroke="rgb(148, 180, 255)" stroke-width="1.5" stroke-linecap="round"></path>
  <path
    d="M45.127 27.5238C39.143 27.5238 39.6033 35.4965 33.6193 34.4997C27.6353 33.5029 28.4221 22.0001 22.5719 22.0001C17.9688 22.0001 17.7543 30.9592 14.1249 32.2356C11.8552 33.0338 8.87805 31.0904 6.84848 29.3959"
    stroke="rgb(80, 131, 251)" stroke-width="1.5" stroke-linecap="round"></path>
  <defs>
    <linearGradient id="paint0_linear_554_88540" x1="25.9891" y1="9" x2="25.9891" y2="34"
                    gradientUnits="userSpaceOnUse">
      <stop stop-color="rgb(148, 180, 255)" stop-opacity="0.5"></stop>
      <stop offset="1" stop-color="white" stop-opacity="0"></stop>
    </linearGradient>
    <linearGradient id="paint1_linear_554_88540" x1="25.9891" y1="22" x2="25.9891" y2="47"
                    gradientUnits="userSpaceOnUse">
      <stop stop-color="rgb(80, 131, 251)" stop-opacity="0.5"></stop>
      <stop offset="1" stop-color="white" stop-opacity="0"></stop>
    </linearGradient>
  </defs>
</svg>
