<svg width="1em" height="1em" viewBox="0 0 52 52" fill="none" xmlns="http://www.w3.org/2000/svg">
  <path d="M34 27L34 31L8 31C7.44772 31 7 30.5523 7 30L7 28C7 27.4477 7.44772 27 8 27L34 27Z"
        fill="rgb(80, 131, 251)"></path>
  <path d="M44 27C44.5523 27 45 27.4477 45 28L45 30C45 30.5523 44.5523 31 44 31L35 31L35 27L44 27Z"
        fill="#c2d4ff"></path>
  <path d="M18 20L18 24L8 24C7.44771 24 7 23.5523 7 23L7 21C7 20.4477 7.44772 20 8 20L18 20Z"
        fill="rgb(80, 131, 251)"></path>
  <path d="M29 20C29.5523 20 30 20.4477 30 21L30 23C30 23.5523 29.5523 24 29 24L19 24L19 20L29 20Z"
        fill="#c2d4ff"></path>
  <path d="M22 13L22 17L8 17C7.44771 17 7 16.5523 7 16L7 14C7 13.4477 7.44772 13 8 13L22 13Z"
        fill="rgb(80, 131, 251)"></path>
  <path d="M37 13C37.5523 13 38 13.4477 38 14L38 16C38 16.5523 37.5523 17 37 17L23 17L23 13L37 13Z"
        fill="#c2d4ff"></path>
  <path d="M23 34L23 38L8 38C7.44771 38 7 37.5523 7 37L7 35C7 34.4477 7.44771 34 8 34L23 34Z"
        fill="rgb(80, 131, 251)"></path>
  <path d="M31 34C31.5523 34 32 34.4477 32 35L32 37C32 37.5523 31.5523 38 31 38L24 38L24 34L31 34Z"
        fill="#c2d4ff"></path>
</svg>
