<svg width="52" height="52" viewBox="0 0 52 52" fill="none" xmlns="http://www.w3.org/2000/svg">
  <path d="M12 29H19V39C19 40.1046 18.1046 41 17 41H14C12.8954 41 12 40.1046 12 39V29Z"
        fill="rgb(80, 131, 251)"></path>
  <path d="M23 33H30V39C30 40.1046 29.1046 41 28 41H25C23.8954 41 23 40.1046 23 39V33Z"
        fill="rgb(80, 131, 251)"></path>
  <path d="M34 27H41V39C41 40.1046 40.1046 41 39 41H36C34.8954 41 34 40.1046 34 39V27Z"
        fill="rgb(80, 131, 251)"></path>
  <path d="M34 17C34 15.8954 34.8954 15 36 15H39C40.1046 15 41 15.8954 41 17V26H34V17Z" fill="#c2d4ff"></path>
  <path d="M12 12.9C12 11.8507 12.8507 11 13.9 11H17.1C18.1493 11 19 11.8507 19 12.9V28H12L12 12.9Z"
        fill="#c2d4ff"></path>
  <path d="M23 21.9C23 20.8507 23.8507 20 24.9 20H28.1C29.1493 20 30 20.8507 30 21.9V32H23V21.9Z"
        fill="#c2d4ff"></path>
</svg>
