<svg width="52" height="52" viewBox="0 0 52 52" fill="none" xmlns="http://www.w3.org/2000/svg">
    <rect x="6" y="12" width="40" height="28" rx="4" fill="#e0e9ff"></rect>
    <path d="M13 32.5C13 31.9477 13.4477 31.5 14 31.5L30 31.5C30.5523 31.5 31 31.9477 31 32.5V33.5C31 34.0523 30.5523 34.5 30 34.5H14C13.4477 34.5 13 34.0523 13 33.5V32.5Z"
          fill="#5083fb"></path>
    <path d="M33.5938 23.4238V22.3594H34.4482C35.1221 22.3594 35.5762 21.959 35.5762 21.3779C35.5762 20.8066 35.1709 20.4307 34.4385 20.4307C33.7549 20.4307 33.3008 20.8359 33.2617 21.4512H31.9043C31.958 20.1475 32.9736 19.2979 34.502 19.2979C35.9668 19.2979 36.9678 20.0498 36.9678 21.1777C36.9678 22.042 36.377 22.667 35.5127 22.8232V22.8525C36.5625 22.9404 37.2412 23.5752 37.2412 24.5518C37.2412 25.8164 36.0938 26.6562 34.4678 26.6562C32.876 26.6562 31.8359 25.7822 31.7676 24.4834H33.1787C33.2227 25.0791 33.7109 25.4697 34.4873 25.4697C35.2246 25.4697 35.7422 25.0547 35.7422 24.459C35.7422 23.8145 35.2588 23.4238 34.4629 23.4238H33.5938Z"
          fill="#5083fb"></path>
    <path d="M25.3613 21.5732C25.3613 20.2402 26.4258 19.2979 27.9639 19.2979C29.4482 19.2979 30.4688 20.1572 30.4688 21.334C30.4688 22.2129 29.8828 22.8721 29.1064 23.6436L27.3877 25.2988V25.3281H30.5664V26.5H25.4443V25.5088L28.1006 22.9502C28.8135 22.2373 29.0332 21.8809 29.0332 21.3926C29.0332 20.8652 28.5693 20.4453 27.915 20.4453C27.2314 20.4453 26.7285 20.9238 26.7285 21.5732V21.5977H25.3613V21.5732Z"
          fill="#5083fb"></path>
    <path d="M22.0039 26.5V20.8066H21.9746L20.1777 22.0469V20.7188L21.999 19.4541H23.4639V26.5H22.0039Z"
          fill="#5083fb"></path>
    <path d="M18.5908 28.043H17.5215L17.8877 25.2891H19.2451L18.5908 28.043Z" fill="#5083fb"></path>
    <path d="M14.2598 26.5V20.8066H14.2305L12.4336 22.0469V20.7188L14.2549 19.4541H15.7197V26.5H14.2598Z"
          fill="#5083fb"></path>
</svg>
