<svg width="52" height="52" viewBox="0 0 52 52" fill="none" xmlns="http://www.w3.org/2000/svg">
    <path d="M6 14C6 11.7909 7.79086 10 10 10H42C44.2091 10 46 11.7909 46 14V36C46 38.2091 44.2091 40 42 40H10C7.79086 40 6 38.2091 6 36L6 14Z"
          fill="#e0e9ff"></path>
    <rect x="11.5" y="31" width="3" height="3" rx="0.8" fill="rgb(148, 180, 255)"></rect>
    <rect x="11.5" y="16" width="3" height="3" rx="0.8" fill="#5083fb"></rect>
    <path d="M18 16.8C18 16.3582 18.3582 16 18.8 16H39.7C40.1418 16 40.5 16.3582 40.5 16.8V18.2C40.5 18.6418 40.1418 19 39.7 19H18.8C18.3582 19 18 18.6418 18 18.2V16.8Z"
          fill="#5083fb"></path>
    <rect x="11.5" y="23.5" width="3" height="3" rx="0.8" fill="rgb(148, 180, 255)"></rect>
    <path d="M18 24.3C18 23.8582 18.3582 23.5 18.8 23.5H39.7C40.1418 23.5 40.5 23.8582 40.5 24.3V25.7C40.5 26.1418 40.1418 26.5 39.7 26.5H18.8C18.3582 26.5 18 26.1418 18 25.7V24.3Z"
          fill="rgb(148, 180, 255)"></path>
    <path d="M18 31.8C18 31.3582 18.3582 31 18.8 31H39.7C40.1418 31 40.5 31.3582 40.5 31.8V33.2C40.5 33.6418 40.1418 34 39.7 34H18.8C18.3582 34 18 33.6418 18 33.2V31.8Z"
          fill="rgb(148, 180, 255)"></path>
</svg>
