<?xml version="1.0" standalone="no"?><!DOCTYPE svg PUBLIC "-//W3C//DTD SVG 1.1//EN" "http://www.w3.org/Graphics/SVG/1.1/DTD/svg11.dtd"><svg t="1749806614130" class="icon" viewBox="0 0 1024 1024" version="1.1" xmlns="http://www.w3.org/2000/svg" p-id="3546" xmlns:xlink="http://www.w3.org/1999/xlink" width="1em" height="1em"><path d="M900.096 444.928c-14.848-204.8-210.432-210.432-210.432-210.432s-72.704-143.872-227.84-118.272C294.4 143.36 278.016 313.856 278.016 313.856S133.12 350.208 138.24 501.76c5.12 160.768 162.304 184.32 162.304 184.32h420.352s194.048-39.936 179.2-241.152z" fill="#E2F2F9" p-id="3547"></path><path d="M399.872 754.688l-38.4 128.512H337.92l-25.6-90.112c-1.024-4.096-1.536-8.192-2.048-12.288h-0.512c0 3.072-1.024 7.168-2.56 12.288l-27.648 90.624h-23.04l-38.4-128.512h23.552l25.6 95.232c1.024 3.072 1.536 6.656 1.536 11.776h1.024c0.512-4.096 1.024-8.192 2.048-12.288l27.648-94.72h20.992l27.136 95.232c1.024 2.56 1.536 6.656 2.048 11.776h1.024c0-3.584 1.024-7.168 2.048-11.776l25.088-95.232h22.016zM413.696 820.224c0-20.992 6.144-37.888 17.92-50.176 11.776-12.288 28.16-18.432 48.128-18.432 19.456 0 34.304 6.144 45.568 17.92s16.384 28.16 16.384 49.152c0 20.48-5.632 36.864-17.408 49.152-11.776 12.288-27.136 18.944-47.104 18.944-19.456 0-34.304-6.144-46.08-17.92-11.776-13.312-17.408-29.184-17.408-48.64z m23.552-1.024c0 14.848 3.584 26.624 11.264 34.816 7.68 8.704 17.408 12.8 30.208 12.8 12.8 0 23.04-4.096 29.696-12.288 6.656-8.192 10.24-20.48 10.24-35.84 0-15.872-3.584-27.648-10.24-35.84-6.656-8.192-16.896-12.8-29.696-12.8s-23.04 4.608-30.208 13.312c-7.68 8.704-11.264 20.992-11.264 35.84zM642.56 777.216c-3.584-2.56-9.216-4.096-15.872-4.096-8.704 0-15.872 4.096-22.016 12.288-5.632 8.192-8.704 18.944-8.704 32.768v65.024H573.44v-128.512h22.528v26.112h0.512c6.656-18.944 17.92-28.16 33.792-28.16 5.12 0 9.216 0.512 11.776 1.536v23.04zM772.608 883.2h-22.528v-21.504h-0.512c-9.216 16.384-24.064 24.576-43.52 24.576-16.384 0-29.184-5.632-38.912-17.408-9.728-11.776-14.336-27.136-14.336-47.104 0-20.992 5.632-38.4 16.384-51.2s25.088-19.456 42.496-19.456 30.208 6.656 37.888 20.48h0.512v-79.36h22.528v190.976z m-22.528-76.8c0-10.24-3.584-18.944-10.24-25.6-6.656-7.168-15.36-10.24-25.088-10.24-12.288 0-21.504 4.608-28.672 13.312-7.168 9.216-10.24 21.504-10.24 36.864 0 14.336 3.584 25.6 10.24 33.792 6.656 8.192 15.872 12.288 26.624 12.288s19.968-4.096 27.136-12.288 10.24-18.432 10.24-30.72v-17.408z" fill="#0DA8E0" p-id="3548"></path></svg>
