<svg width="52" height="52" viewBox="0 0 52 52" fill="none" xmlns="http://www.w3.org/2000/svg">
  <path fill-rule="evenodd"
        d="M14.75 39.6667H25.9882C25.9923 39.6667 25.9965 39.6667 26.0007 39.6667C26.0048 39.6667 26.009 39.6667 26.0131 39.6667H38.5C42.6421 39.6667 46 36.3088 46 32.1667C46 28.2726 43.0323 25.0717 39.2352 24.7022C38.4309 18.1078 32.8123 13 26.0007 13C20.0473 13 15.0053 16.9017 13.2922 22.2876C9.1536 22.9816 6 26.5809 6 30.9167C6 35.6095 9.69432 39.4394 14.3333 39.6569V39.6667H14.75Z"
        fill="#e0e9ff"></path>
  <rect x="16" y="25.3335" width="10" height="3" rx="1" fill="#94b4ff"></rect>
  <rect x="16" y="30.3335" width="21" height="3" rx="1" fill="#5083fb"></rect>
</svg>
