<?xml version="1.0" standalone="no"?><!DOCTYPE svg PUBLIC "-//W3C//DTD SVG 1.1//EN" "http://www.w3.org/Graphics/SVG/1.1/DTD/svg11.dtd"><svg t="1721371279397" class="icon" viewBox="0 0 1024 1024" version="1.1" xmlns="http://www.w3.org/2000/svg" p-id="5187" xmlns:xlink="http://www.w3.org/1999/xlink" width="200" height="200"><path d="M128 384a64 64 0 1 1 128 0 64 64 0 0 1-128 0z m320 0a64 64 0 1 1 128 0 64 64 0 0 1-128 0z m320 0a64 64 0 1 1 128 0 64 64 0 0 1-128 0zM128 640a64 64 0 1 1 128 0 64 64 0 0 1-128 0z m320 0a64 64 0 1 1 128 0 64 64 0 0 1-128 0z m320 0a64 64 0 1 1 128 0 64 64 0 0 1-128 0z" fill="#555555" p-id="5188"></path></svg>